<?xml version="1.0" encoding="UTF-8" standalone="no"?>
<svg
   xmlns:dc="http://purl.org/dc/elements/1.1/"
   xmlns:cc="http://creativecommons.org/ns#"
   xmlns:rdf="http://www.w3.org/1999/02/22-rdf-syntax-ns#"
   xmlns:svg="http://www.w3.org/2000/svg"
   xmlns="http://www.w3.org/2000/svg"
   viewBox="0 0 1587.4 1122.52"
   height="1122.52"
   width="1587.4"
   xml:space="preserve"
   id="svg2"
   version="1.1"><metadata
     id="metadata8"><rdf:RDF><cc:Work
         rdf:about=""><dc:format>image/svg+xml</dc:format><dc:type
           rdf:resource="http://purl.org/dc/dcmitype/StillImage" /></cc:Work></rdf:RDF></metadata><defs
     id="defs6"><clipPath
       id="clipPath34"
       clipPathUnits="userSpaceOnUse"><path
         id="path32"
         d="M 0,841.89 H 1190.55 V 0 H 0 Z" /></clipPath></defs><g
     transform="matrix(1.3333333,0,0,-1.3333333,0,1122.52)"
     id="g10"><g
       transform="translate(169.3701,709.6841)"
       id="g12"><path
         id="path14"
         style="fill:#8a8a89;fill-opacity:1;fill-rule:nonzero;stroke:none"
         d="m 0,0 -59.667,-145.578 h 42.16 l 34.094,88.374 32.023,-88.374 H 90.767 L 31.103,0 Z" /></g><g
       transform="translate(584.9473,618.126)"
       id="g16"><path
         id="path18"
         style="fill:#8a8a89;fill-opacity:1;fill-rule:nonzero;stroke:none"
         d="M 0,0 13.255,34.354 25.704,0 Z M -3.332,91.558 -62.999,-54.02 h 42.157 l 8.534,22.121 h 49.571 l 8.015,-22.121 h 42.16 L 27.769,91.558 Z" /></g><g
       transform="translate(359.1958,636.4863)"
       id="g20"><path
         id="path22"
         style="fill:#8a8a89;fill-opacity:1;fill-rule:nonzero;stroke:none"
         d="M 0,0 -52.524,73.198 H -87.775 V -72.38 h 40.314 V 0.819 L 5.067,-72.38 H 40.314 V 73.198 H 0 Z" /></g><g
       transform="translate(538.6504,709.6841)"
       id="g24"><path
         id="path26"
         style="fill:#8a8a89;fill-opacity:1;fill-rule:nonzero;stroke:none"
         d="m 0,0 h -120.947 v -31.896 h 40.315 v -113.682 h 40.314 V -31.896 H 0 Z" /></g><g
       id="g28"><g
         clip-path="url(#clipPath34)"
         id="g30"><g
           transform="translate(751.2666,648.1416)"
           id="g36"><path
             id="path38"
             style="fill:#8a8a89;fill-opacity:1;fill-rule:nonzero;stroke:none"
             d="M 0,0 H -22.809 V 29.443 H 0 c 11.058,0 17.51,-7.156 17.51,-14.721 C 17.51,7.157 11.058,0 0,0 m 57.828,14.722 c 0,23.923 -19.586,46.82 -55.982,46.82 H -63.125 V -84.035 h 40.316 v 52.129 H -8.72 L 19.812,-84.035 H 66.576 L 31.1,-23.308 c 12.903,5.724 26.728,18.196 26.728,38.03" /></g><g
           transform="translate(833.0439,564.1064)"
           id="g40"><path
             id="path42"
             style="fill:#8a8a89;fill-opacity:1;fill-rule:nonzero;stroke:none"
             d="M 0,0 H 111.503 V 31.896 H 40.315 V 55.453 H 83.78 v 31.9 H 40.315 v 26.329 h 71.188 v 31.896 L 0,145.578 Z" /></g><g
           transform="translate(1071.0352,640.5747)"
           id="g44"><path
             id="path46"
             style="fill:#8a8a89;fill-opacity:1;fill-rule:nonzero;stroke:none"
             d="m 0,0 c -6.909,6.136 -17.503,10.225 -32.249,12.065 l -19.812,2.454 c -5.76,0.613 -9.219,2.453 -11.291,4.294 -2.532,2.248 -3.225,4.907 -3.225,6.746 0,6.34 5.761,13.496 19.813,13.496 7.146,0 20.736,0.613 31.1,-8.588 L 9.675,52.958 c -14.052,12.472 -31.789,17.379 -55.289,17.379 -37.318,0 -59.899,-19.423 -59.899,-46.003 0,-12.472 3.689,-22.286 11.295,-29.239 7.372,-6.748 18.423,-11.043 32.938,-12.881 l 19.816,-2.455 c 5.297,-0.614 8.756,-2.043 10.827,-3.884 2.302,-2.248 3.226,-5.111 3.226,-8.588 0,-8.38 -7.604,-13.086 -23.5,-13.086 -13.134,0 -28.106,2.659 -36.627,10.224 l -25.804,-22.899 c 16.585,-15.132 37.09,-19.221 62.2,-19.221 34.558,0 63.356,16.153 63.356,45.8 C 12.214,-18.401 8.755,-7.564 0,0" /></g><g
           transform="translate(185.2642,603.4375)"
           id="g48"><path
             id="path50"
             style="fill:#98c32e;fill-opacity:1;fill-rule:nonzero;stroke:none"
             d="M 0,0 18.474,-58.237 75.4,-77.033 18.474,-95.833 0,-154.071 l -18.473,58.238 -56.927,18.8 56.927,18.796 z" /></g><g
           transform="translate(291.8218,535.8672)"
           id="g52"><path
             id="path54"
             style="fill:#98c32e;fill-opacity:1;fill-rule:nonzero;stroke:none"
             d="M 0,0 V -25.738 H -9.272 V 0 h -9.28 V 7.222 H 9.28 L 9.28,0 Z" /></g><g
           transform="translate(344.6626,510.1289)"
           id="g56"><path
             id="path58"
             style="fill:#98c32e;fill-opacity:1;fill-rule:nonzero;stroke:none"
             d="M 0,0 V 32.96 H 25.663 V 25.738 H 9.276 V 20.231 H 23.271 V 13.007 H 9.276 V 7.22 H 25.663 V 0 Z" /></g><g
           transform="translate(428.147,509.8491)"
           id="g60"><path
             id="path62"
             style="fill:#98c32e;fill-opacity:1;fill-rule:nonzero;stroke:none"
             d="m 0,0 c -4.396,0 -7.739,1.299 -10.494,3.705 -3.975,3.472 -3.818,8.102 -3.818,13.056 0,4.951 -0.157,9.582 3.818,13.054 2.755,2.409 6.098,3.704 10.494,3.704 7.164,0 12.935,-3.472 14.321,-10.74 H 4.876 c -0.578,1.849 -1.745,3.517 -4.819,3.517 -1.703,0 -2.97,-0.599 -3.663,-1.387 -0.851,-0.974 -1.425,-2.13 -1.425,-8.148 0,-6.021 0.574,-7.178 1.425,-8.147 0.693,-0.787 1.96,-1.39 3.663,-1.39 3.074,0 4.241,1.666 4.819,3.516 h 9.445 C 12.935,3.473 7.164,0 0,0" /></g><g
           transform="translate(504.6387,510.1289)"
           id="g64"><path
             id="path66"
             style="fill:#98c32e;fill-opacity:1;fill-rule:nonzero;stroke:none"
             d="M 0,0 V 13.054 H -9.869 V 0 h -9.272 v 32.96 h 9.272 V 20.276 H 0 V 32.96 H 9.275 L 9.275,0 Z" /></g><g
           transform="translate(581.0728,510.1289)"
           id="g68"><path
             id="path70"
             style="fill:#98c32e;fill-opacity:1;fill-rule:nonzero;stroke:none"
             d="M 0,0 -12.091,16.571 V 0 h -9.276 v 32.96 h 8.109 L -1.167,16.387 V 32.96 H 8.11 L 8.11,0 Z" /></g><g
           transform="translate(651.834,534.7129)"
           id="g72"><path
             id="path74"
             style="fill:#98c32e;fill-opacity:1;fill-rule:nonzero;stroke:none"
             d="M 0,0 C -0.69,0.783 -2.011,1.432 -3.714,1.432 -5.413,1.432 -6.737,0.783 -7.427,0 -8.27,-0.975 -8.799,-2.084 -8.799,-8.103 c 0,-6.021 0.529,-7.082 1.372,-8.056 0.69,-0.786 2.014,-1.481 3.713,-1.481 1.703,0 3.024,0.695 3.714,1.481 0.848,0.974 1.375,2.035 1.375,8.056 C 1.375,-2.084 0.848,-0.975 0,0 m 6.837,-21.159 c -2.758,-2.406 -5.933,-3.705 -10.551,-3.705 -4.614,0 -7.789,1.299 -10.544,3.705 -3.985,3.472 -3.824,8.102 -3.824,13.056 0,4.952 -0.161,9.582 3.824,13.055 2.755,2.408 5.93,3.703 10.544,3.703 4.618,0 7.793,-1.295 10.551,-3.703 3.973,-3.473 3.818,-8.103 3.818,-13.055 0,-4.954 0.155,-9.584 -3.818,-13.056" /></g><g
           transform="translate(707.0625,510.1289)"
           id="g76"><path
             id="path78"
             style="fill:#98c32e;fill-opacity:1;fill-rule:nonzero;stroke:none"
             d="M 0,0 V 32.96 H 9.271 V 7.22 H 25.128 V 0 Z" /></g><g
           transform="translate(791.2363,534.7129)"
           id="g80"><path
             id="path82"
             style="fill:#98c32e;fill-opacity:1;fill-rule:nonzero;stroke:none"
             d="M 0,0 C -0.689,0.783 -2.019,1.432 -3.713,1.432 -5.404,1.432 -6.73,0.783 -7.424,0 c -0.847,-0.975 -1.381,-2.084 -1.381,-8.103 0,-6.021 0.534,-7.082 1.381,-8.056 0.694,-0.786 2.02,-1.481 3.711,-1.481 1.694,0 3.024,0.695 3.713,1.481 0.843,0.974 1.375,2.035 1.375,8.056 C 1.375,-2.084 0.843,-0.975 0,0 m 6.834,-21.159 c -2.755,-2.406 -5.933,-3.705 -10.547,-3.705 -4.611,0 -7.79,1.299 -10.548,3.705 -3.978,3.472 -3.816,8.102 -3.816,13.056 0,4.952 -0.162,9.582 3.816,13.055 2.758,2.408 5.937,3.703 10.548,3.703 4.614,0 7.792,-1.295 10.547,-3.703 3.979,-3.473 3.82,-8.103 3.82,-13.055 0,-4.954 0.159,-9.584 -3.82,-13.056" /></g><g
           transform="translate(870.5361,513.5537)"
           id="g84"><path
             id="path86"
             style="fill:#98c32e;fill-opacity:1;fill-rule:nonzero;stroke:none"
             d="m 0,0 c -3.239,-2.916 -6.848,-3.705 -10.978,-3.705 -4.403,0 -7.74,1.299 -10.5,3.705 -3.977,3.473 -3.818,8.102 -3.818,13.056 0,4.952 -0.159,9.583 3.818,13.055 2.76,2.409 5.939,3.703 10.5,3.703 9.7,0 13.833,-5.509 14.735,-10.926 h -9.33 c -0.739,2.501 -2.227,3.703 -5.405,3.703 -1.703,0 -2.969,-0.649 -3.66,-1.432 -0.851,-0.975 -1.378,-2.084 -1.378,-8.103 0,-6.021 0.527,-7.177 1.378,-8.147 0.691,-0.787 1.957,-1.389 3.66,-1.389 1.961,0 3.286,0.509 4.13,1.295 1.067,0.925 1.437,2.268 1.437,3.517 v 0.464 h -5.567 v 6.759 H 3.808 V 10.971 C 3.808,5.649 2.855,2.548 0,0" /></g><path
           id="path88"
           style="fill:#98c32e;fill-opacity:1;fill-rule:nonzero;stroke:none"
           d="m 918.927,543.089 h 9.27 v -32.96 h -9.27 z" /><g
           transform="translate(973.9912,510.1289)"
           id="g90"><path
             id="path92"
             style="fill:#98c32e;fill-opacity:1;fill-rule:nonzero;stroke:none"
             d="M 0,0 V 32.96 H 25.658 V 25.738 H 9.278 v -5.507 h 14 v -7.224 h -14 V 7.22 h 16.38 V 0 Z" /></g><g
           transform="translate(1055.1445,509.8491)"
           id="g94"><path
             id="path96"
             style="fill:#98c32e;fill-opacity:1;fill-rule:nonzero;stroke:none"
             d="m 0,0 c -5.782,0 -10.5,0.927 -14.311,4.355 l 5.936,5.183 c 1.962,-1.711 5.405,-2.314 8.429,-2.314 3.652,0 5.408,1.063 5.408,2.963 0,0.786 -0.215,1.434 -0.743,1.944 -0.474,0.417 -1.272,0.744 -2.492,0.876 l -4.561,0.556 c -3.337,0.419 -5.887,1.391 -7.578,2.918 -1.752,1.575 -2.601,3.795 -2.601,6.623 0,6.017 5.194,10.415 13.781,10.415 5.415,0 9.495,-1.112 12.73,-3.935 L 8.167,24.492 c -2.389,2.083 -5.513,1.943 -7.161,1.943 -3.234,0 -4.558,-1.62 -4.558,-3.057 0,-0.415 0.155,-1.017 0.744,-1.524 0.474,-0.418 1.267,-0.833 2.596,-0.973 l 4.561,-0.555 c 3.39,-0.42 5.829,-1.343 7.419,-2.731 2.018,-1.715 2.808,-4.167 2.808,-7.223 C 14.576,3.66 7.951,0 0,0" /></g><g
           transform="translate(845.2422,155.8291)"
           id="g98"><path
             id="path100"
             style="fill:#838383;fill-opacity:1;fill-rule:nonzero;stroke:none"
             d="M 0,0 -15.539,-37.913 H -4.56 l 8.88,23.016 8.34,-23.016 H 23.639 L 8.101,0 Z" /></g><g
           transform="translate(952.6055,155.8291)"
           id="g102"><path
             id="path104"
             style="fill:#838383;fill-opacity:1;fill-rule:nonzero;stroke:none"
             d="m 0,0 -15.539,-37.913 h 10.978 l 8.881,23.016 8.34,-23.016 H 23.64 L 8.1,0 Z" /></g><g
           transform="translate(894.6797,136.7656)"
           id="g106"><path
             id="path108"
             style="fill:#838383;fill-opacity:1;fill-rule:nonzero;stroke:none"
             d="m 0,0 -13.68,19.063 h -9.179 V -18.85 H -12.36 V 0.214 L 1.319,-18.85 h 9.18 V 19.063 H 0 Z" /></g><g
           transform="translate(941.416,155.8291)"
           id="g110"><path
             id="path112"
             style="fill:#838383;fill-opacity:1;fill-rule:nonzero;stroke:none"
             d="M 0,0 H -31.499 V -8.307 H -21 v -29.606 h 10.5 V -8.307 H 0 Z" /></g><g
           transform="translate(996.7891,139.8018)"
           id="g114"><path
             id="path116"
             style="fill:#838383;fill-opacity:1;fill-rule:nonzero;stroke:none"
             d="M 0,0 H -5.94 V 7.668 H 0 C 2.88,7.668 4.56,5.804 4.56,3.834 4.56,1.863 2.88,0 0,0 m 15.061,3.834 c 0,6.23 -5.102,12.193 -14.581,12.193 h -16.92 v -37.913 h 10.5 V -1.605 L 5.159,-21.886 h 12.18 L 8.1,-6.07 c 3.36,1.49 6.961,4.738 6.961,9.904" /></g><path
           id="path118"
           style="fill:#838383;fill-opacity:1;fill-rule:nonzero;stroke:none"
           d="m 1042.511,141.187 h -9.032 v -8.308 h 9.032 z" /><g
           transform="translate(1018.0869,117.916)"
           id="g120"><path
             id="path122"
             style="fill:#838383;fill-opacity:1;fill-rule:nonzero;stroke:none"
             d="m 0,0 h 29.039 v 8.307 h -18.54 v 21.299 h 18.54 v 8.307 L 0,37.913 Z" /></g><g
           transform="translate(1080.0684,137.8311)"
           id="g124"><path
             id="path126"
             style="fill:#838383;fill-opacity:1;fill-rule:nonzero;stroke:none"
             d="m 0,0 c -1.8,1.598 -4.559,2.662 -8.399,3.142 l -5.16,0.639 c -1.5,0.159 -2.401,0.639 -2.94,1.118 -0.66,0.585 -0.841,1.279 -0.841,1.757 0,1.652 1.501,3.515 5.16,3.515 1.862,0 5.401,0.16 8.1,-2.236 l 6.6,5.857 c -3.661,3.248 -8.28,4.526 -14.4,4.526 -9.719,0 -15.599,-5.058 -15.599,-11.981 0,-3.248 0.96,-5.804 2.941,-7.614 1.92,-1.758 4.798,-2.876 8.578,-3.356 l 5.161,-0.638 c 1.379,-0.161 2.28,-0.533 2.82,-1.012 0.599,-0.586 0.84,-1.331 0.84,-2.237 0,-2.182 -1.98,-3.408 -6.121,-3.408 -3.42,0 -7.319,0.693 -9.539,2.662 l -6.72,-5.963 c 4.32,-3.941 9.66,-5.005 16.2,-5.005 9,0 16.5,4.206 16.5,11.927 C 3.181,-4.793 2.279,-1.971 0,0" /></g><g
           transform="translate(849.3818,128.1592)"
           id="g128"><path
             id="path130"
             style="fill:#98c32e;fill-opacity:1;fill-rule:nonzero;stroke:none"
             d="M 0,0 4.811,-15.167 19.637,-20.062 4.811,-24.959 0,-40.126 l -4.812,15.167 -14.826,4.897 14.826,4.895 z" /></g><g
           transform="translate(877.1328,110.5615)"
           id="g132"><path
             id="path134"
             style="fill:#98c32e;fill-opacity:1;fill-rule:nonzero;stroke:none"
             d="M 0,0 V -6.703 H -2.415 V 0 H -4.831 V 1.881 H 2.417 L 2.417,0 Z" /></g><g
           transform="translate(890.8945,103.8584)"
           id="g136"><path
             id="path138"
             style="fill:#98c32e;fill-opacity:1;fill-rule:nonzero;stroke:none"
             d="M 0,0 V 8.584 H 6.684 V 6.703 H 2.416 V 5.269 H 6.061 V 3.388 H 2.416 V 1.88 h 4.268 l 0,-1.88 z" /></g><g
           transform="translate(912.6367,103.7852)"
           id="g140"><path
             id="path142"
             style="fill:#98c32e;fill-opacity:1;fill-rule:nonzero;stroke:none"
             d="m 0,0 c -1.145,0 -2.016,0.338 -2.732,0.965 -1.036,0.904 -0.995,2.11 -0.995,3.4 0,1.289 -0.041,2.495 0.995,3.4 0.716,0.628 1.587,0.964 2.732,0.964 1.866,0 3.369,-0.904 3.73,-2.796 H 1.271 C 1.12,6.414 0.815,6.849 0.016,6.849 -0.429,6.849 -0.759,6.692 -0.938,6.487 -1.16,6.233 -1.311,5.933 -1.311,4.365 c 0,-1.568 0.151,-1.869 0.373,-2.122 0.179,-0.205 0.509,-0.361 0.954,-0.361 0.799,0 1.104,0.433 1.255,0.915 H 3.73 C 3.369,0.904 1.866,0 0,0" /></g><g
           transform="translate(932.5586,103.8584)"
           id="g144"><path
             id="path146"
             style="fill:#98c32e;fill-opacity:1;fill-rule:nonzero;stroke:none"
             d="M 0,0 V 3.399 H -2.57 V 0 H -4.985 V 8.584 H -2.57 V 5.28 H 0 V 8.584 H 2.415 L 2.415,0 Z" /></g><g
           transform="translate(952.4639,103.8584)"
           id="g148"><path
             id="path150"
             style="fill:#98c32e;fill-opacity:1;fill-rule:nonzero;stroke:none"
             d="M 0,0 -3.148,4.315 V 0 h -2.416 v 8.584 h 2.112 L -0.304,4.268 V 8.584 H 2.112 V 0 Z" /></g><g
           transform="translate(970.8926,110.2607)"
           id="g152"><path
             id="path154"
             style="fill:#98c32e;fill-opacity:1;fill-rule:nonzero;stroke:none"
             d="m 0,0 c -0.18,0.204 -0.523,0.373 -0.967,0.373 -0.442,0 -0.787,-0.169 -0.967,-0.373 -0.219,-0.254 -0.357,-0.543 -0.357,-2.11 0,-1.569 0.138,-1.845 0.357,-2.098 0.18,-0.205 0.525,-0.386 0.967,-0.386 0.444,0 0.787,0.181 0.967,0.386 0.222,0.253 0.358,0.529 0.358,2.098 C 0.358,-0.543 0.222,-0.254 0,0 m 1.781,-5.511 c -0.719,-0.627 -1.545,-0.965 -2.748,-0.965 -1.201,0 -2.028,0.338 -2.746,0.965 -1.038,0.905 -0.996,2.111 -0.996,3.401 0,1.289 -0.042,2.495 0.996,3.399 0.718,0.628 1.545,0.965 2.746,0.965 1.203,0 2.029,-0.337 2.748,-0.965 1.034,-0.904 0.994,-2.11 0.994,-3.399 0,-1.29 0.04,-2.496 -0.994,-3.401" /></g><g
           transform="translate(985.2764,103.8584)"
           id="g156"><path
             id="path158"
             style="fill:#98c32e;fill-opacity:1;fill-rule:nonzero;stroke:none"
             d="M 0,0 V 8.584 H 2.415 V 1.88 H 6.544 V 0 Z" /></g><g
           transform="translate(1007.1982,110.2607)"
           id="g160"><path
             id="path162"
             style="fill:#98c32e;fill-opacity:1;fill-rule:nonzero;stroke:none"
             d="m 0,0 c -0.18,0.204 -0.525,0.373 -0.967,0.373 -0.44,0 -0.786,-0.169 -0.967,-0.373 -0.219,-0.254 -0.359,-0.543 -0.359,-2.11 0,-1.569 0.14,-1.845 0.359,-2.098 0.181,-0.205 0.527,-0.386 0.967,-0.386 0.442,0 0.787,0.181 0.967,0.386 0.22,0.253 0.358,0.529 0.358,2.098 C 0.358,-0.543 0.22,-0.254 0,0 m 1.78,-5.511 c -0.718,-0.627 -1.545,-0.965 -2.747,-0.965 -1.201,0 -2.028,0.338 -2.747,0.965 -1.036,0.905 -0.994,2.111 -0.994,3.401 0,1.289 -0.042,2.495 0.994,3.399 0.719,0.628 1.546,0.965 2.747,0.965 1.202,0 2.029,-0.337 2.747,-0.965 1.036,-0.904 0.995,-2.11 0.995,-3.399 0,-1.29 0.041,-2.496 -0.995,-3.401" /></g><g
           transform="translate(1027.8506,104.75)"
           id="g164"><path
             id="path166"
             style="fill:#98c32e;fill-opacity:1;fill-rule:nonzero;stroke:none"
             d="m 0,0 c -0.843,-0.76 -1.783,-0.965 -2.858,-0.965 -1.147,0 -2.016,0.338 -2.735,0.965 -1.036,0.904 -0.995,2.11 -0.995,3.4 0,1.289 -0.041,2.496 0.995,3.4 0.719,0.628 1.546,0.965 2.735,0.965 2.525,0 3.602,-1.435 3.837,-2.846 h -2.43 C -1.644,5.57 -2.031,5.884 -2.858,5.884 -3.302,5.884 -3.632,5.715 -3.812,5.511 -4.033,5.257 -4.171,4.968 -4.171,3.4 c 0,-1.568 0.138,-1.869 0.359,-2.122 0.18,-0.205 0.51,-0.361 0.954,-0.361 0.51,0 0.855,0.132 1.075,0.337 0.278,0.241 0.374,0.591 0.374,0.916 v 0.121 h -1.449 v 1.76 h 3.85 V 2.857 C 0.992,1.472 0.744,0.663 0,0" /></g><path
           id="path168"
           style="fill:#98c32e;fill-opacity:1;fill-rule:nonzero;stroke:none"
           d="m 1040.453,112.442 h 2.415 v -8.584 h -2.415 z" /><g
           transform="translate(1054.7939,103.8584)"
           id="g170"><path
             id="path172"
             style="fill:#98c32e;fill-opacity:1;fill-rule:nonzero;stroke:none"
             d="M 0,0 V 8.584 H 6.683 V 6.703 H 2.417 V 5.269 H 6.062 V 3.388 H 2.417 V 1.88 H 6.683 V 0 Z" /></g><g
           transform="translate(1075.9297,103.7852)"
           id="g174"><path
             id="path176"
             style="fill:#98c32e;fill-opacity:1;fill-rule:nonzero;stroke:none"
             d="m 0,0 c -1.506,0 -2.734,0.241 -3.727,1.134 l 1.545,1.349 c 0.512,-0.445 1.409,-0.601 2.196,-0.601 0.951,0 1.408,0.276 1.408,0.77 0,0.205 -0.056,0.374 -0.193,0.507 C 1.105,3.268 0.897,3.353 0.58,3.388 l -1.187,0.144 c -0.87,0.11 -1.534,0.363 -1.975,0.76 -0.456,0.41 -0.677,0.988 -0.677,1.725 0,1.567 1.353,2.712 3.589,2.712 1.41,0 2.473,-0.29 3.316,-1.024 L 2.127,6.379 C 1.505,6.921 0.691,6.885 0.262,6.885 c -0.842,0 -1.187,-0.422 -1.187,-0.796 0,-0.109 0.04,-0.266 0.194,-0.398 0.124,-0.108 0.33,-0.216 0.675,-0.253 L 1.133,5.294 C 2.016,5.185 2.65,4.943 3.064,4.582 3.59,4.136 3.796,3.497 3.796,2.701 3.796,0.953 2.07,0 0,0" /></g><g
           transform="translate(610.8779,402.9912)"
           id="g178"><path
             id="path180"
             style="fill:#838383;fill-opacity:1;fill-rule:nonzero;stroke:none"
             d="M 0,0 -29.099,-70.998 H -8.538 L 8.091,-27.897 23.708,-70.998 H 44.267 L 15.17,0 Z" /></g><g
           transform="translate(811.9316,402.9912)"
           id="g182"><path
             id="path184"
             style="fill:#838383;fill-opacity:1;fill-rule:nonzero;stroke:none"
             d="M 0,0 -29.099,-70.998 H -8.54 L 8.091,-27.897 23.709,-70.998 H 44.27 L 15.168,0 Z" /></g><g
           transform="translate(703.457,367.292)"
           id="g186"><path
             id="path188"
             style="fill:#838383;fill-opacity:1;fill-rule:nonzero;stroke:none"
             d="m 0,0 -25.617,35.699 h -17.191 v -70.998 h 19.662 V 0.4 L 2.471,-35.299 h 17.19 V 35.699 H 0 Z" /></g><g
           transform="translate(790.9785,402.9912)"
           id="g190"><path
             id="path192"
             style="fill:#838383;fill-opacity:1;fill-rule:nonzero;stroke:none"
             d="m 0,0 h -58.987 v -15.556 h 19.661 v -55.442 h 19.663 v 55.442 H 0 Z" /></g><g
           transform="translate(894.6729,372.9775)"
           id="g194"><path
             id="path196"
             style="fill:#838383;fill-opacity:1;fill-rule:nonzero;stroke:none"
             d="M 0,0 H -11.125 V 14.359 H 0 c 5.393,0 8.538,-3.491 8.538,-7.179 C 8.538,3.489 5.393,0 0,0 m 28.203,7.18 c 0,11.668 -9.554,22.834 -27.304,22.834 h -31.686 v -70.998 h 19.662 V -3.006 L 9.661,-40.984 H 32.47 l -17.303,29.617 c 6.293,2.79 13.036,8.873 13.036,18.547" /></g><path
           id="path198"
           style="fill:#838383;fill-opacity:1;fill-rule:nonzero;stroke:none"
           d="m 980.293,375.571 h -16.914 v -15.558 h 16.914 z" /><g
           transform="translate(934.5557,331.9932)"
           id="g200"><path
             id="path202"
             style="fill:#838383;fill-opacity:1;fill-rule:nonzero;stroke:none"
             d="M 0,0 H 54.38 V 15.556 H 19.661 V 55.442 H 54.38 V 70.998 H 0 Z" /></g><g
           transform="translate(1050.626,369.2871)"
           id="g204"><path
             id="path206"
             style="fill:#838383;fill-opacity:1;fill-rule:nonzero;stroke:none"
             d="m 0,0 c -3.371,2.992 -8.537,4.985 -15.729,5.883 l -9.662,1.198 c -2.809,0.298 -4.497,1.196 -5.506,2.094 -1.237,1.096 -1.575,2.394 -1.575,3.29 0,3.093 2.811,6.582 9.663,6.582 3.486,0 10.114,0.3 15.168,-4.189 l 12.359,10.97 c -6.854,6.082 -15.504,8.476 -26.965,8.476 -18.2,0 -29.213,-9.473 -29.213,-22.437 0,-6.083 1.8,-10.868 5.509,-14.259 3.595,-3.292 8.984,-5.385 16.063,-6.284 l 9.665,-1.196 c 2.582,-0.3 4.271,-0.996 5.28,-1.895 1.123,-1.096 1.575,-2.492 1.575,-4.187 0,-4.087 -3.709,-6.383 -11.463,-6.383 -6.404,0 -13.707,1.297 -17.863,4.985 L -55.278,-28.52 c 8.089,-7.378 18.088,-9.372 30.336,-9.372 16.853,0 30.898,7.876 30.898,22.336 C 5.956,-8.976 4.269,-3.69 0,0" /></g><g
           transform="translate(618.6299,351.1748)"
           id="g208"><path
             id="path210"
             style="fill:#98c32e;fill-opacity:1;fill-rule:nonzero;stroke:none"
             d="M 0,0 9.009,-28.402 36.772,-37.569 9.009,-46.739 0,-75.142 l -9.01,28.403 -27.764,9.17 27.764,9.167 z" /></g><g
           transform="translate(670.5977,318.2207)"
           id="g212"><path
             id="path214"
             style="fill:#98c32e;fill-opacity:1;fill-rule:nonzero;stroke:none"
             d="M 0,0 V -12.553 H -4.522 V 0 H -9.047 V 3.522 H 4.526 V 0 Z" /></g><g
           transform="translate(696.3691,305.668)"
           id="g216"><path
             id="path218"
             style="fill:#98c32e;fill-opacity:1;fill-rule:nonzero;stroke:none"
             d="M 0,0 V 16.075 H 12.516 V 12.553 H 4.524 V 9.866 H 11.35 V 6.345 H 4.524 V 3.521 h 7.992 V 0 Z" /></g><g
           transform="translate(737.084,305.5312)"
           id="g220"><path
             id="path222"
             style="fill:#98c32e;fill-opacity:1;fill-rule:nonzero;stroke:none"
             d="m 0,0 c -2.143,0 -3.774,0.633 -5.116,1.807 -1.939,1.693 -1.863,3.952 -1.863,6.368 0,2.414 -0.076,4.672 1.863,6.365 1.342,1.176 2.973,1.807 5.116,1.807 3.495,0 6.31,-1.694 6.986,-5.238 H 2.38 c -0.282,0.902 -0.853,1.716 -2.351,1.716 -0.832,0 -1.449,-0.293 -1.786,-0.677 -0.415,-0.475 -0.696,-1.039 -0.696,-3.973 0,-2.938 0.281,-3.501 0.696,-3.975 0.337,-0.384 0.954,-0.676 1.786,-0.676 1.498,0 2.069,0.812 2.351,1.713 H 6.986 C 6.31,1.693 3.495,0 0,0" /></g><g
           transform="translate(774.3916,305.668)"
           id="g224"><path
             id="path226"
             style="fill:#98c32e;fill-opacity:1;fill-rule:nonzero;stroke:none"
             d="M 0,0 V 6.366 H -4.813 V 0 h -4.523 v 16.075 h 4.523 V 9.889 H 0 v 6.186 H 4.522 L 4.522,0 Z" /></g><g
           transform="translate(811.667,305.668)"
           id="g228"><path
             id="path230"
             style="fill:#98c32e;fill-opacity:1;fill-rule:nonzero;stroke:none"
             d="M 0,0 -5.896,8.081 V 0 h -4.525 v 16.075 h 3.956 l 5.896,-8.083 v 8.083 H 3.956 L 3.956,0 Z" /></g><g
           transform="translate(846.1777,317.6572)"
           id="g232"><path
             id="path234"
             style="fill:#98c32e;fill-opacity:1;fill-rule:nonzero;stroke:none"
             d="m 0,0 c -0.337,0.383 -0.98,0.699 -1.811,0.699 -0.828,0 -1.474,-0.316 -1.81,-0.699 -0.412,-0.475 -0.67,-1.017 -0.67,-3.951 0,-2.938 0.258,-3.455 0.67,-3.929 0.336,-0.384 0.982,-0.722 1.81,-0.722 0.831,0 1.474,0.338 1.811,0.722 0.415,0.474 0.671,0.991 0.671,3.929 C 0.671,-1.017 0.415,-0.475 0,0 m 3.336,-10.319 c -1.347,-1.174 -2.894,-1.807 -5.147,-1.807 -2.25,0 -3.798,0.633 -5.142,1.807 -1.944,1.693 -1.865,3.952 -1.865,6.368 0,2.414 -0.079,4.672 1.865,6.365 1.344,1.176 2.892,1.807 5.142,1.807 2.253,0 3.8,-0.631 5.147,-1.807 1.936,-1.693 1.861,-3.951 1.861,-6.365 0,-2.416 0.075,-4.675 -1.861,-6.368" /></g><g
           transform="translate(873.1133,305.668)"
           id="g236"><path
             id="path238"
             style="fill:#98c32e;fill-opacity:1;fill-rule:nonzero;stroke:none"
             d="M 0,0 V 16.075 H 4.522 V 3.521 h 7.733 l 0,-3.521 z" /></g><g
           transform="translate(914.165,317.6572)"
           id="g240"><path
             id="path242"
             style="fill:#98c32e;fill-opacity:1;fill-rule:nonzero;stroke:none"
             d="M 0,0 C -0.336,0.383 -0.983,0.699 -1.811,0.699 -2.635,0.699 -3.282,0.383 -3.62,0 c -0.412,-0.475 -0.674,-1.017 -0.674,-3.951 0,-2.938 0.262,-3.455 0.674,-3.929 0.338,-0.384 0.985,-0.722 1.809,-0.722 0.828,0 1.475,0.338 1.811,0.722 0.412,0.474 0.672,0.991 0.672,3.929 C 0.672,-1.017 0.412,-0.475 0,0 m 3.334,-10.319 c -1.344,-1.174 -2.893,-1.807 -5.145,-1.807 -2.249,0 -3.797,0.633 -5.143,1.807 -1.941,1.693 -1.862,3.952 -1.862,6.368 0,2.414 -0.079,4.672 1.862,6.365 1.346,1.176 2.894,1.807 5.143,1.807 2.252,0 3.801,-0.631 5.145,-1.807 1.94,-1.693 1.863,-3.951 1.863,-6.365 0,-2.416 0.077,-4.675 -1.863,-6.368" /></g><g
           transform="translate(952.8398,307.3379)"
           id="g244"><path
             id="path246"
             style="fill:#98c32e;fill-opacity:1;fill-rule:nonzero;stroke:none"
             d="m 0,0 c -1.578,-1.423 -3.339,-1.807 -5.353,-1.807 -2.147,0 -3.774,0.633 -5.12,1.807 -1.94,1.693 -1.864,3.952 -1.864,6.368 0,2.414 -0.076,4.672 1.864,6.365 1.346,1.176 2.895,1.807 5.12,1.807 4.73,0 6.747,-2.686 7.185,-5.328 h -4.55 c -0.36,1.22 -1.086,1.807 -2.635,1.807 -0.83,0 -1.448,-0.317 -1.785,-0.7 -0.415,-0.474 -0.673,-1.016 -0.673,-3.951 0,-2.937 0.258,-3.501 0.673,-3.974 0.337,-0.384 0.955,-0.676 1.785,-0.676 0.957,0 1.602,0.246 2.014,0.631 0.521,0.451 0.7,1.105 0.7,1.714 V 4.29 H -5.353 V 7.586 H 1.858 V 5.351 C 1.858,2.756 1.394,1.241 0,0" /></g><path
           id="path248"
           style="fill:#98c32e;fill-opacity:1;fill-rule:nonzero;stroke:none"
           d="m 976.44,321.743 h 4.522 v -16.075 h -4.522 z" /><g
           transform="translate(1003.2959,305.668)"
           id="g250"><path
             id="path252"
             style="fill:#98c32e;fill-opacity:1;fill-rule:nonzero;stroke:none"
             d="M 0,0 V 16.075 H 12.514 V 12.553 H 4.525 V 9.866 h 6.828 V 6.345 H 4.525 V 3.521 h 7.989 V 0 Z" /></g><g
           transform="translate(1042.875,305.5312)"
           id="g254"><path
             id="path256"
             style="fill:#98c32e;fill-opacity:1;fill-rule:nonzero;stroke:none"
             d="m 0,0 c -2.819,0 -5.12,0.451 -6.979,2.123 l 2.894,2.527 c 0.958,-0.834 2.637,-1.126 4.111,-1.126 1.782,0 2.637,0.517 2.637,1.443 0,0.384 -0.104,0.7 -0.362,0.949 C 2.07,6.119 1.681,6.278 1.087,6.344 l -2.224,0.27 c -1.628,0.205 -2.871,0.679 -3.698,1.423 -0.853,0.769 -1.268,1.851 -1.268,3.23 0,2.935 2.534,5.08 6.721,5.08 2.642,0 4.631,-0.543 6.209,-1.918 L 3.983,11.945 c -1.165,1.015 -2.688,0.948 -3.493,0.948 -1.576,0 -2.221,-0.79 -2.221,-1.491 0,-0.203 0.075,-0.497 0.362,-0.744 0.232,-0.203 0.618,-0.406 1.265,-0.473 L 2.122,9.913 C 3.775,9.709 4.964,9.257 5.739,8.58 6.723,7.745 7.108,6.549 7.108,5.059 7.108,1.784 3.877,0 0,0" /></g><g
           transform="translate(187.4399,275.8281)"
           id="g258"><path
             id="path260"
             style="fill:#838383;fill-opacity:1;fill-rule:nonzero;stroke:none"
             d="M 0,0 -31.736,-77.432 H -9.313 L 8.822,-30.427 25.855,-77.432 H 48.277 L 16.543,0 Z" /></g><g
           transform="translate(195.8931,219.3154)"
           id="g262"><path
             id="path264"
             style="fill:#98c32e;fill-opacity:1;fill-rule:nonzero;stroke:none"
             d="m 0,0 9.826,-30.976 30.279,-9.996 -30.279,-10 L 0,-81.948 l -9.825,30.976 -30.279,10 30.279,9.996 z" /></g></g></g></g></svg>