<?xml version="1.0" encoding="UTF-8" standalone="no"?>
<svg
   xmlns:dc="http://purl.org/dc/elements/1.1/"
   xmlns:cc="http://creativecommons.org/ns#"
   xmlns:rdf="http://www.w3.org/1999/02/22-rdf-syntax-ns#"
   xmlns:svg="http://www.w3.org/2000/svg"
   xmlns="http://www.w3.org/2000/svg"
   viewBox="0 0 1587.4 1122.52"
   height="1122.52"
   width="1587.4"
   xml:space="preserve"
   id="svg2"
   version="1.1"><metadata
     id="metadata8"><rdf:RDF><cc:Work
         rdf:about=""><dc:format>image/svg+xml</dc:format><dc:type
           rdf:resource="http://purl.org/dc/dcmitype/StillImage" /></cc:Work></rdf:RDF></metadata><defs
     id="defs6"><clipPath
       id="clipPath34"
       clipPathUnits="userSpaceOnUse"><path
         id="path32"
         d="M 0,841.89 H 1190.55 V 0 H 0 Z" /></clipPath></defs><g
     transform="matrix(1.3333333,0,0,-1.3333333,0,1122.52)"
     id="g10"><g
       transform="translate(169.3701,709.6841)"
       id="g12">/></g><g
       id="g28"><g
         clip-path="url(#clipPath34)"
         id="g30"><g
           transform="translate(751.2666,648.1416)"
           id="g36"><path
             /></g><g
           transform="translate(845.2422,155.8291)"
           id="g98"><path
             id="path100"
             style="fill:#838383;fill-opacity:1;fill-rule:nonzero;stroke:none"
             d="M 0,0 -15.539,-37.913 H -4.56 l 8.88,23.016 8.34,-23.016 H 23.639 L 8.101,0 Z" /></g><g
           transform="translate(952.6055,155.8291)"
           id="g102"><path
             id="path104"
             style="fill:#838383;fill-opacity:1;fill-rule:nonzero;stroke:none"
             d="m 0,0 -15.539,-37.913 h 10.978 l 8.881,23.016 8.34,-23.016 H 23.64 L 8.1,0 Z" /></g><g
           transform="translate(894.6797,136.7656)"
           id="g106"><path
             id="path108"
             style="fill:#838383;fill-opacity:1;fill-rule:nonzero;stroke:none"
             d="m 0,0 -13.68,19.063 h -9.179 V -18.85 H -12.36 V 0.214 L 1.319,-18.85 h 9.18 V 19.063 H 0 Z" /></g><g
           transform="translate(941.416,155.8291)"
           id="g110"><path
             id="path112"
             style="fill:#838383;fill-opacity:1;fill-rule:nonzero;stroke:none"
             d="M 0,0 H -31.499 V -8.307 H -21 v -29.606 h 10.5 V -8.307 H 0 Z" /></g><g
           transform="translate(996.7891,139.8018)"
           id="g114"><path
             id="path116"
             style="fill:#838383;fill-opacity:1;fill-rule:nonzero;stroke:none"
             d="M 0,0 H -5.94 V 7.668 H 0 C 2.88,7.668 4.56,5.804 4.56,3.834 4.56,1.863 2.88,0 0,0 m 15.061,3.834 c 0,6.23 -5.102,12.193 -14.581,12.193 h -16.92 v -37.913 h 10.5 V -1.605 L 5.159,-21.886 h 12.18 L 8.1,-6.07 c 3.36,1.49 6.961,4.738 6.961,9.904" /></g><path
           id="path118"
           style="fill:#838383;fill-opacity:1;fill-rule:nonzero;stroke:none"
           d="m 1042.511,141.187 h -9.032 v -8.308 h 9.032 z" /><g
           transform="translate(1018.0869,117.916)"
           id="g120"><path
             id="path122"
             style="fill:#838383;fill-opacity:1;fill-rule:nonzero;stroke:none"
             d="m 0,0 h 29.039 v 8.307 h -18.54 v 21.299 h 18.54 v 8.307 L 0,37.913 Z" /></g><g
           transform="translate(1080.0684,137.8311)"
           id="g124"><path
             id="path126"
             style="fill:#838383;fill-opacity:1;fill-rule:nonzero;stroke:none"
             d="m 0,0 c -1.8,1.598 -4.559,2.662 -8.399,3.142 l -5.16,0.639 c -1.5,0.159 -2.401,0.639 -2.94,1.118 -0.66,0.585 -0.841,1.279 -0.841,1.757 0,1.652 1.501,3.515 5.16,3.515 1.862,0 5.401,0.16 8.1,-2.236 l 6.6,5.857 c -3.661,3.248 -8.28,4.526 -14.4,4.526 -9.719,0 -15.599,-5.058 -15.599,-11.981 0,-3.248 0.96,-5.804 2.941,-7.614 1.92,-1.758 4.798,-2.876 8.578,-3.356 l 5.161,-0.638 c 1.379,-0.161 2.28,-0.533 2.82,-1.012 0.599,-0.586 0.84,-1.331 0.84,-2.237 0,-2.182 -1.98,-3.408 -6.121,-3.408 -3.42,0 -7.319,0.693 -9.539,2.662 l -6.72,-5.963 c 4.32,-3.941 9.66,-5.005 16.2,-5.005 9,0 16.5,4.206 16.5,11.927 C 3.181,-4.793 2.279,-1.971 0,0" /></g><g
           transform="translate(849.3818,128.1592)"
           id="g128"><path
             id="path130"
             style="fill:#98c32e;fill-opacity:1;fill-rule:nonzero;stroke:none"
             d="M 0,0 4.811,-15.167 19.637,-20.062 4.811,-24.959 0,-40.126 l -4.812,15.167 -14.826,4.897 14.826,4.895 z" /></g><g
           transform="translate(877.1328,110.5615)"
           id="g132"><path
             id="path134"
             style="fill:#98c32e;fill-opacity:1;fill-rule:nonzero;stroke:none"
             d="M 0,0 V -6.703 H -2.415 V 0 H -4.831 V 1.881 H 2.417 L 2.417,0 Z" /></g><g
           transform="translate(890.8945,103.8584)"
           id="g136"><path
             id="path138"
             style="fill:#98c32e;fill-opacity:1;fill-rule:nonzero;stroke:none"
             d="M 0,0 V 8.584 H 6.684 V 6.703 H 2.416 V 5.269 H 6.061 V 3.388 H 2.416 V 1.88 h 4.268 l 0,-1.88 z" /></g><g
           transform="translate(912.6367,103.7852)"
           id="g140"><path
             id="path142"
             style="fill:#98c32e;fill-opacity:1;fill-rule:nonzero;stroke:none"
             d="m 0,0 c -1.145,0 -2.016,0.338 -2.732,0.965 -1.036,0.904 -0.995,2.11 -0.995,3.4 0,1.289 -0.041,2.495 0.995,3.4 0.716,0.628 1.587,0.964 2.732,0.964 1.866,0 3.369,-0.904 3.73,-2.796 H 1.271 C 1.12,6.414 0.815,6.849 0.016,6.849 -0.429,6.849 -0.759,6.692 -0.938,6.487 -1.16,6.233 -1.311,5.933 -1.311,4.365 c 0,-1.568 0.151,-1.869 0.373,-2.122 0.179,-0.205 0.509,-0.361 0.954,-0.361 0.799,0 1.104,0.433 1.255,0.915 H 3.73 C 3.369,0.904 1.866,0 0,0" /></g><g
           transform="translate(932.5586,103.8584)"
           id="g144"><path
             id="path146"
             style="fill:#98c32e;fill-opacity:1;fill-rule:nonzero;stroke:none"
             d="M 0,0 V 3.399 H -2.57 V 0 H -4.985 V 8.584 H -2.57 V 5.28 H 0 V 8.584 H 2.415 L 2.415,0 Z" /></g><g
           transform="translate(952.4639,103.8584)"
           id="g148"><path
             id="path150"
             style="fill:#98c32e;fill-opacity:1;fill-rule:nonzero;stroke:none"
             d="M 0,0 -3.148,4.315 V 0 h -2.416 v 8.584 h 2.112 L -0.304,4.268 V 8.584 H 2.112 V 0 Z" /></g><g
           transform="translate(970.8926,110.2607)"
           id="g152"><path
             id="path154"
             style="fill:#98c32e;fill-opacity:1;fill-rule:nonzero;stroke:none"
             d="m 0,0 c -0.18,0.204 -0.523,0.373 -0.967,0.373 -0.442,0 -0.787,-0.169 -0.967,-0.373 -0.219,-0.254 -0.357,-0.543 -0.357,-2.11 0,-1.569 0.138,-1.845 0.357,-2.098 0.18,-0.205 0.525,-0.386 0.967,-0.386 0.444,0 0.787,0.181 0.967,0.386 0.222,0.253 0.358,0.529 0.358,2.098 C 0.358,-0.543 0.222,-0.254 0,0 m 1.781,-5.511 c -0.719,-0.627 -1.545,-0.965 -2.748,-0.965 -1.201,0 -2.028,0.338 -2.746,0.965 -1.038,0.905 -0.996,2.111 -0.996,3.401 0,1.289 -0.042,2.495 0.996,3.399 0.718,0.628 1.545,0.965 2.746,0.965 1.203,0 2.029,-0.337 2.748,-0.965 1.034,-0.904 0.994,-2.11 0.994,-3.399 0,-1.29 0.04,-2.496 -0.994,-3.401" /></g><g
           transform="translate(985.2764,103.8584)"
           id="g156"><path
             id="path158"
             style="fill:#98c32e;fill-opacity:1;fill-rule:nonzero;stroke:none"
             d="M 0,0 V 8.584 H 2.415 V 1.88 H 6.544 V 0 Z" /></g><g
           transform="translate(1007.1982,110.2607)"
           id="g160"><path
             id="path162"
             style="fill:#98c32e;fill-opacity:1;fill-rule:nonzero;stroke:none"
             d="m 0,0 c -0.18,0.204 -0.525,0.373 -0.967,0.373 -0.44,0 -0.786,-0.169 -0.967,-0.373 -0.219,-0.254 -0.359,-0.543 -0.359,-2.11 0,-1.569 0.14,-1.845 0.359,-2.098 0.181,-0.205 0.527,-0.386 0.967,-0.386 0.442,0 0.787,0.181 0.967,0.386 0.22,0.253 0.358,0.529 0.358,2.098 C 0.358,-0.543 0.22,-0.254 0,0 m 1.78,-5.511 c -0.718,-0.627 -1.545,-0.965 -2.747,-0.965 -1.201,0 -2.028,0.338 -2.747,0.965 -1.036,0.905 -0.994,2.111 -0.994,3.401 0,1.289 -0.042,2.495 0.994,3.399 0.719,0.628 1.546,0.965 2.747,0.965 1.202,0 2.029,-0.337 2.747,-0.965 1.036,-0.904 0.995,-2.11 0.995,-3.399 0,-1.29 0.041,-2.496 -0.995,-3.401" /></g><g
           transform="translate(1027.8506,104.75)"
           id="g164"><path
             id="path166"
             style="fill:#98c32e;fill-opacity:1;fill-rule:nonzero;stroke:none"
             d="m 0,0 c -0.843,-0.76 -1.783,-0.965 -2.858,-0.965 -1.147,0 -2.016,0.338 -2.735,0.965 -1.036,0.904 -0.995,2.11 -0.995,3.4 0,1.289 -0.041,2.496 0.995,3.4 0.719,0.628 1.546,0.965 2.735,0.965 2.525,0 3.602,-1.435 3.837,-2.846 h -2.43 C -1.644,5.57 -2.031,5.884 -2.858,5.884 -3.302,5.884 -3.632,5.715 -3.812,5.511 -4.033,5.257 -4.171,4.968 -4.171,3.4 c 0,-1.568 0.138,-1.869 0.359,-2.122 0.18,-0.205 0.51,-0.361 0.954,-0.361 0.51,0 0.855,0.132 1.075,0.337 0.278,0.241 0.374,0.591 0.374,0.916 v 0.121 h -1.449 v 1.76 h 3.85 V 2.857 C 0.992,1.472 0.744,0.663 0,0" /></g><path
           id="path168"
           style="fill:#98c32e;fill-opacity:1;fill-rule:nonzero;stroke:none"
           d="m 1040.453,112.442 h 2.415 v -8.584 h -2.415 z" /><g
           transform="translate(1054.7939,103.8584)"
           id="g170"><path
             id="path172"
             style="fill:#98c32e;fill-opacity:1;fill-rule:nonzero;stroke:none"
             d="M 0,0 V 8.584 H 6.683 V 6.703 H 2.417 V 5.269 H 6.062 V 3.388 H 2.417 V 1.88 H 6.683 V 0 Z" /></g><g
           transform="translate(1075.9297,103.7852)"
           id="g174"><path
             id="path176"
             style="fill:#98c32e;fill-opacity:1;fill-rule:nonzero;stroke:none"
             d="m 0,0 c -1.506,0 -2.734,0.241 -3.727,1.134 l 1.545,1.349 c 0.512,-0.445 1.409,-0.601 2.196,-0.601 0.951,0 1.408,0.276 1.408,0.77 0,0.205 -0.056,0.374 -0.193,0.507 C 1.105,3.268 0.897,3.353 0.58,3.388 l -1.187,0.144 c -0.87,0.11 -1.534,0.363 -1.975,0.76 -0.456,0.41 -0.677,0.988 -0.677,1.725 0,1.567 1.353,2.712 3.589,2.712 1.41,0 2.473,-0.29 3.316,-1.024 L 2.127,6.379 C 1.505,6.921 0.691,6.885 0.262,6.885 c -0.842,0 -1.187,-0.422 -1.187,-0.796 0,-0.109 0.04,-0.266 0.194,-0.398 0.124,-0.108 0.33,-0.216 0.675,-0.253 L 1.133,5.294 C 2.016,5.185 2.65,4.943 3.064,4.582 3.59,4.136 3.796,3.497 3.796,2.701 3.796,0.953 2.07,0 0,0" /></g><g
           transform="translate(610.8779,402.9912)"
           id="g178"><path
            /></g></g></g></g></svg>