<?xml version="1.0" encoding="UTF-8" standalone="no"?>
<svg
   xmlns:dc="http://purl.org/dc/elements/1.1/"
   xmlns:cc="http://creativecommons.org/ns#"
   xmlns:rdf="http://www.w3.org/1999/02/22-rdf-syntax-ns#"
   xmlns:svg="http://www.w3.org/2000/svg"
   xmlns="http://www.w3.org/2000/svg"
   viewBox="0 0 1587.4 1122.52"
   height="1122.52"
   width="1587.4"
   xml:space="preserve"
   id="svg2"
   version="1.1"><metadata
     id="metadata8"><rdf:RDF><cc:Work
         rdf:about=""><dc:format>image/svg+xml</dc:format><dc:type
           rdf:resource="http://purl.org/dc/dcmitype/StillImage" /></cc:Work></rdf:RDF></metadata><defs
     id="defs6"><clipPath
       id="clipPath34"
       clipPathUnits="userSpaceOnUse"><path
         id="path32"
         d="M 0,841.89 H 1190.55 V 0 H 0 Z" /></clipPath></defs><g
     transform="matrix(1.3333333,0,0,-1.3333333,0,1122.52)"
     id="g10"><g
       transform="translate(169.3701,709.6841)"
       id="g12"><path
         id="path14"
         style="fill:#8a8a89;fill-opacity:1;fill-rule:nonzero;stroke:none"
         d="m 0,0 -59.667,-145.578 h 42.16 l 34.094,88.374 32.023,-88.374 H 90.767 L 31.103,0 Z" /></g><g
       transform="translate(584.9473,618.126)"
       id="g16"><path
         id="path18"
         style="fill:#8a8a89;fill-opacity:1;fill-rule:nonzero;stroke:none"
         d="M 0,0 13.255,34.354 25.704,0 Z M -3.332,91.558 -62.999,-54.02 h 42.157 l 8.534,22.121 h 49.571 l 8.015,-22.121 h 42.16 L 27.769,91.558 Z" /></g><g
       transform="translate(359.1958,636.4863)"
       id="g20"><path
         id="path22"
         style="fill:#8a8a89;fill-opacity:1;fill-rule:nonzero;stroke:none"
         d="M 0,0 -52.524,73.198 H -87.775 V -72.38 h 40.314 V 0.819 L 5.067,-72.38 H 40.314 V 73.198 H 0 Z" /></g><g
       transform="translate(538.6504,709.6841)"
       id="g24"><path
         id="path26"
         style="fill:#8a8a89;fill-opacity:1;fill-rule:nonzero;stroke:none"
         d="m 0,0 h -120.947 v -31.896 h 40.315 v -113.682 h 40.314 V -31.896 H 0 Z" /></g><g
       id="g28"><g
         clip-path="url(#clipPath34)"
         id="g30"><g
           transform="translate(751.2666,648.1416)"
           id="g36"><path
             id="path38"
             style="fill:#8a8a89;fill-opacity:1;fill-rule:nonzero;stroke:none"
             d="M 0,0 H -22.809 V 29.443 H 0 c 11.058,0 17.51,-7.156 17.51,-14.721 C 17.51,7.157 11.058,0 0,0 m 57.828,14.722 c 0,23.923 -19.586,46.82 -55.982,46.82 H -63.125 V -84.035 h 40.316 v 52.129 H -8.72 L 19.812,-84.035 H 66.576 L 31.1,-23.308 c 12.903,5.724 26.728,18.196 26.728,38.03" /></g><g
           transform="translate(833.0439,564.1064)"
           id="g40"><path
             id="path42"
             style="fill:#8a8a89;fill-opacity:1;fill-rule:nonzero;stroke:none"
             d="M 0,0 H 111.503 V 31.896 H 40.315 V 55.453 H 83.78 v 31.9 H 40.315 v 26.329 h 71.188 v 31.896 L 0,145.578 Z" /></g><g
           transform="translate(1071.0352,640.5747)"
           id="g44"><path
             id="path46"
             style="fill:#8a8a89;fill-opacity:1;fill-rule:nonzero;stroke:none"
             d="m 0,0 c -6.909,6.136 -17.503,10.225 -32.249,12.065 l -19.812,2.454 c -5.76,0.613 -9.219,2.453 -11.291,4.294 -2.532,2.248 -3.225,4.907 -3.225,6.746 0,6.34 5.761,13.496 19.813,13.496 7.146,0 20.736,0.613 31.1,-8.588 L 9.675,52.958 c -14.052,12.472 -31.789,17.379 -55.289,17.379 -37.318,0 -59.899,-19.423 -59.899,-46.003 0,-12.472 3.689,-22.286 11.295,-29.239 7.372,-6.748 18.423,-11.043 32.938,-12.881 l 19.816,-2.455 c 5.297,-0.614 8.756,-2.043 10.827,-3.884 2.302,-2.248 3.226,-5.111 3.226,-8.588 0,-8.38 -7.604,-13.086 -23.5,-13.086 -13.134,0 -28.106,2.659 -36.627,10.224 l -25.804,-22.899 c 16.585,-15.132 37.09,-19.221 62.2,-19.221 34.558,0 63.356,16.153 63.356,45.8 C 12.214,-18.401 8.755,-7.564 0,0" /></g><g
           transform="translate(185.2642,603.4375)"
           id="g48"><path
             id="path50"
             style="fill:#98c32e;fill-opacity:1;fill-rule:nonzero;stroke:none"
             d="M 0,0 18.474,-58.237 75.4,-77.033 18.474,-95.833 0,-154.071 l -18.473,58.238 -56.927,18.8 56.927,18.796 z" /></g><g
           transform="translate(291.8218,535.8672)"
           id="g52"><path
             id="path54"
             style="fill:#98c32e;fill-opacity:1;fill-rule:nonzero;stroke:none"
             d="M 0,0 V -25.738 H -9.272 V 0 h -9.28 V 7.222 H 9.28 L 9.28,0 Z" /></g><g
           transform="translate(344.6626,510.1289)"
           id="g56"><path
             id="path58"
             style="fill:#98c32e;fill-opacity:1;fill-rule:nonzero;stroke:none"
             d="M 0,0 V 32.96 H 25.663 V 25.738 H 9.276 V 20.231 H 23.271 V 13.007 H 9.276 V 7.22 H 25.663 V 0 Z" /></g><g
           transform="translate(428.147,509.8491)"
           id="g60"><path
             id="path62"
             style="fill:#98c32e;fill-opacity:1;fill-rule:nonzero;stroke:none"
             d="m 0,0 c -4.396,0 -7.739,1.299 -10.494,3.705 -3.975,3.472 -3.818,8.102 -3.818,13.056 0,4.951 -0.157,9.582 3.818,13.054 2.755,2.409 6.098,3.704 10.494,3.704 7.164,0 12.935,-3.472 14.321,-10.74 H 4.876 c -0.578,1.849 -1.745,3.517 -4.819,3.517 -1.703,0 -2.97,-0.599 -3.663,-1.387 -0.851,-0.974 -1.425,-2.13 -1.425,-8.148 0,-6.021 0.574,-7.178 1.425,-8.147 0.693,-0.787 1.96,-1.39 3.663,-1.39 3.074,0 4.241,1.666 4.819,3.516 h 9.445 C 12.935,3.473 7.164,0 0,0" /></g><g
           transform="translate(504.6387,510.1289)"
           id="g64"><path
             id="path66"
             style="fill:#98c32e;fill-opacity:1;fill-rule:nonzero;stroke:none"
             d="M 0,0 V 13.054 H -9.869 V 0 h -9.272 v 32.96 h 9.272 V 20.276 H 0 V 32.96 H 9.275 L 9.275,0 Z" /></g><g
           transform="translate(581.0728,510.1289)"
           id="g68"><path
             id="path70"
             style="fill:#98c32e;fill-opacity:1;fill-rule:nonzero;stroke:none"
             d="M 0,0 -12.091,16.571 V 0 h -9.276 v 32.96 h 8.109 L -1.167,16.387 V 32.96 H 8.11 L 8.11,0 Z" /></g><g
           transform="translate(651.834,534.7129)"
           id="g72"><path
             id="path74"
             style="fill:#98c32e;fill-opacity:1;fill-rule:nonzero;stroke:none"
             d="M 0,0 C -0.69,0.783 -2.011,1.432 -3.714,1.432 -5.413,1.432 -6.737,0.783 -7.427,0 -8.27,-0.975 -8.799,-2.084 -8.799,-8.103 c 0,-6.021 0.529,-7.082 1.372,-8.056 0.69,-0.786 2.014,-1.481 3.713,-1.481 1.703,0 3.024,0.695 3.714,1.481 0.848,0.974 1.375,2.035 1.375,8.056 C 1.375,-2.084 0.848,-0.975 0,0 m 6.837,-21.159 c -2.758,-2.406 -5.933,-3.705 -10.551,-3.705 -4.614,0 -7.789,1.299 -10.544,3.705 -3.985,3.472 -3.824,8.102 -3.824,13.056 0,4.952 -0.161,9.582 3.824,13.055 2.755,2.408 5.93,3.703 10.544,3.703 4.618,0 7.793,-1.295 10.551,-3.703 3.973,-3.473 3.818,-8.103 3.818,-13.055 0,-4.954 0.155,-9.584 -3.818,-13.056" /></g><g
           transform="translate(707.0625,510.1289)"
           id="g76"><path
             id="path78"
             style="fill:#98c32e;fill-opacity:1;fill-rule:nonzero;stroke:none"
             d="M 0,0 V 32.96 H 9.271 V 7.22 H 25.128 V 0 Z" /></g><g
           transform="translate(791.2363,534.7129)"
           id="g80"><path
             id="path82"
             style="fill:#98c32e;fill-opacity:1;fill-rule:nonzero;stroke:none"
             d="M 0,0 C -0.689,0.783 -2.019,1.432 -3.713,1.432 -5.404,1.432 -6.73,0.783 -7.424,0 c -0.847,-0.975 -1.381,-2.084 -1.381,-8.103 0,-6.021 0.534,-7.082 1.381,-8.056 0.694,-0.786 2.02,-1.481 3.711,-1.481 1.694,0 3.024,0.695 3.713,1.481 0.843,0.974 1.375,2.035 1.375,8.056 C 1.375,-2.084 0.843,-0.975 0,0 m 6.834,-21.159 c -2.755,-2.406 -5.933,-3.705 -10.547,-3.705 -4.611,0 -7.79,1.299 -10.548,3.705 -3.978,3.472 -3.816,8.102 -3.816,13.056 0,4.952 -0.162,9.582 3.816,13.055 2.758,2.408 5.937,3.703 10.548,3.703 4.614,0 7.792,-1.295 10.547,-3.703 3.979,-3.473 3.82,-8.103 3.82,-13.055 0,-4.954 0.159,-9.584 -3.82,-13.056" /></g><g
           transform="translate(870.5361,513.5537)"
           id="g84"><path
             id="path86"
             style="fill:#98c32e;fill-opacity:1;fill-rule:nonzero;stroke:none"
             d="m 0,0 c -3.239,-2.916 -6.848,-3.705 -10.978,-3.705 -4.403,0 -7.74,1.299 -10.5,3.705 -3.977,3.473 -3.818,8.102 -3.818,13.056 0,4.952 -0.159,9.583 3.818,13.055 2.76,2.409 5.939,3.703 10.5,3.703 9.7,0 13.833,-5.509 14.735,-10.926 h -9.33 c -0.739,2.501 -2.227,3.703 -5.405,3.703 -1.703,0 -2.969,-0.649 -3.66,-1.432 -0.851,-0.975 -1.378,-2.084 -1.378,-8.103 0,-6.021 0.527,-7.177 1.378,-8.147 0.691,-0.787 1.957,-1.389 3.66,-1.389 1.961,0 3.286,0.509 4.13,1.295 1.067,0.925 1.437,2.268 1.437,3.517 v 0.464 h -5.567 v 6.759 H 3.808 V 10.971 C 3.808,5.649 2.855,2.548 0,0" /></g><path
           id="path88"
           style="fill:#98c32e;fill-opacity:1;fill-rule:nonzero;stroke:none"
           d="m 918.927,543.089 h 9.27 v -32.96 h -9.27 z" /><g
           transform="translate(973.9912,510.1289)"
           id="g90"><path
             id="path92"
             style="fill:#98c32e;fill-opacity:1;fill-rule:nonzero;stroke:none"
             d="M 0,0 V 32.96 H 25.658 V 25.738 H 9.278 v -5.507 h 14 v -7.224 h -14 V 7.22 h 16.38 V 0 Z" /></g><g
           transform="translate(1055.1445,509.8491)"
           id="g94"><path
             id="path96"
             style="fill:#98c32e;fill-opacity:1;fill-rule:nonzero;stroke:none"
             d="m 0,0 c -5.782,0 -10.5,0.927 -14.311,4.355 l 5.936,5.183 c 1.962,-1.711 5.405,-2.314 8.429,-2.314 3.652,0 5.408,1.063 5.408,2.963 0,0.786 -0.215,1.434 -0.743,1.944 -0.474,0.417 -1.272,0.744 -2.492,0.876 l -4.561,0.556 c -3.337,0.419 -5.887,1.391 -7.578,2.918 -1.752,1.575 -2.601,3.795 -2.601,6.623 0,6.017 5.194,10.415 13.781,10.415 5.415,0 9.495,-1.112 12.73,-3.935 L 8.167,24.492 c -2.389,2.083 -5.513,1.943 -7.161,1.943 -3.234,0 -4.558,-1.62 -4.558,-3.057 0,-0.415 0.155,-1.017 0.744,-1.524 0.474,-0.418 1.267,-0.833 2.596,-0.973 l 4.561,-0.555 c 3.39,-0.42 5.829,-1.343 7.419,-2.731 2.018,-1.715 2.808,-4.167 2.808,-7.223 C 14.576,3.66 7.951,0 0,0" /></g><g
           transform="translate(845.2422,155.8291)"
           id="g98"></g></g></g></g></svg>