<?xml version="1.0" encoding="UTF-8" standalone="no"?>
<svg
   xmlns:dc="http://purl.org/dc/elements/1.1/"
   xmlns:cc="http://creativecommons.org/ns#"
   xmlns:rdf="http://www.w3.org/1999/02/22-rdf-syntax-ns#"
   xmlns:svg="http://www.w3.org/2000/svg"
   xmlns="http://www.w3.org/2000/svg"
   viewBox="0 0 1587.4 1122.52"
   height="1122.52"
   width="1587.4"
   xml:space="preserve"
   id="svg2"
   version="1.1"><metadata
     id="metadata8"><rdf:RDF><cc:Work
         rdf:about=""><dc:format>image/svg+xml</dc:format><dc:type
           rdf:resource="http://purl.org/dc/dcmitype/StillImage" /></cc:Work></rdf:RDF></metadata><defs
     id="defs6"><clipPath
       id="clipPath34"
       clipPathUnits="userSpaceOnUse"><path
         id="path32"
         d="M 0,841.89 H 1190.55 V 0 H 0 Z" /></clipPath></defs><g
     transform="matrix(1.3333333,0,0,-1.3333333,0,1122.52)"
     id="g10"><g
       transform="translate(169.3701,709.6841)"
       id="g12"><path
          /></g><g
       id="g28"><g
         clip-path="url(#clipPath34)"
         id="g30"><g
           transform="translate(751.2666,648.1416)"
           id="g36"><path
              /></g><g
           transform="translate(610.8779,402.9912)"
           id="g178"><path
             id="path180"
             style="fill:#838383;fill-opacity:1;fill-rule:nonzero;stroke:none"
             d="M 0,0 -29.099,-70.998 H -8.538 L 8.091,-27.897 23.708,-70.998 H 44.267 L 15.17,0 Z" /></g><g
           transform="translate(811.9316,402.9912)"
           id="g182"><path
             id="path184"
             style="fill:#838383;fill-opacity:1;fill-rule:nonzero;stroke:none"
             d="M 0,0 -29.099,-70.998 H -8.54 L 8.091,-27.897 23.709,-70.998 H 44.27 L 15.168,0 Z" /></g><g
           transform="translate(703.457,367.292)"
           id="g186"><path
             id="path188"
             style="fill:#838383;fill-opacity:1;fill-rule:nonzero;stroke:none"
             d="m 0,0 -25.617,35.699 h -17.191 v -70.998 h 19.662 V 0.4 L 2.471,-35.299 h 17.19 V 35.699 H 0 Z" /></g><g
           transform="translate(790.9785,402.9912)"
           id="g190"><path
             id="path192"
             style="fill:#838383;fill-opacity:1;fill-rule:nonzero;stroke:none"
             d="m 0,0 h -58.987 v -15.556 h 19.661 v -55.442 h 19.663 v 55.442 H 0 Z" /></g><g
           transform="translate(894.6729,372.9775)"
           id="g194"><path
             id="path196"
             style="fill:#838383;fill-opacity:1;fill-rule:nonzero;stroke:none"
             d="M 0,0 H -11.125 V 14.359 H 0 c 5.393,0 8.538,-3.491 8.538,-7.179 C 8.538,3.489 5.393,0 0,0 m 28.203,7.18 c 0,11.668 -9.554,22.834 -27.304,22.834 h -31.686 v -70.998 h 19.662 V -3.006 L 9.661,-40.984 H 32.47 l -17.303,29.617 c 6.293,2.79 13.036,8.873 13.036,18.547" /></g><path
           id="path198"
           style="fill:#838383;fill-opacity:1;fill-rule:nonzero;stroke:none"
           d="m 980.293,375.571 h -16.914 v -15.558 h 16.914 z" /><g
           transform="translate(934.5557,331.9932)"
           id="g200"><path
             id="path202"
             style="fill:#838383;fill-opacity:1;fill-rule:nonzero;stroke:none"
             d="M 0,0 H 54.38 V 15.556 H 19.661 V 55.442 H 54.38 V 70.998 H 0 Z" /></g><g
           transform="translate(1050.626,369.2871)"
           id="g204"><path
             id="path206"
             style="fill:#838383;fill-opacity:1;fill-rule:nonzero;stroke:none"
             d="m 0,0 c -3.371,2.992 -8.537,4.985 -15.729,5.883 l -9.662,1.198 c -2.809,0.298 -4.497,1.196 -5.506,2.094 -1.237,1.096 -1.575,2.394 -1.575,3.29 0,3.093 2.811,6.582 9.663,6.582 3.486,0 10.114,0.3 15.168,-4.189 l 12.359,10.97 c -6.854,6.082 -15.504,8.476 -26.965,8.476 -18.2,0 -29.213,-9.473 -29.213,-22.437 0,-6.083 1.8,-10.868 5.509,-14.259 3.595,-3.292 8.984,-5.385 16.063,-6.284 l 9.665,-1.196 c 2.582,-0.3 4.271,-0.996 5.28,-1.895 1.123,-1.096 1.575,-2.492 1.575,-4.187 0,-4.087 -3.709,-6.383 -11.463,-6.383 -6.404,0 -13.707,1.297 -17.863,4.985 L -55.278,-28.52 c 8.089,-7.378 18.088,-9.372 30.336,-9.372 16.853,0 30.898,7.876 30.898,22.336 C 5.956,-8.976 4.269,-3.69 0,0" /></g><g
           transform="translate(618.6299,351.1748)"
           id="g208"><path
             id="path210"
             style="fill:#98c32e;fill-opacity:1;fill-rule:nonzero;stroke:none"
             d="M 0,0 9.009,-28.402 36.772,-37.569 9.009,-46.739 0,-75.142 l -9.01,28.403 -27.764,9.17 27.764,9.167 z" /></g><g
           transform="translate(670.5977,318.2207)"
           id="g212"><path
             id="path214"
             style="fill:#98c32e;fill-opacity:1;fill-rule:nonzero;stroke:none"
             d="M 0,0 V -12.553 H -4.522 V 0 H -9.047 V 3.522 H 4.526 V 0 Z" /></g><g
           transform="translate(696.3691,305.668)"
           id="g216"><path
             id="path218"
             style="fill:#98c32e;fill-opacity:1;fill-rule:nonzero;stroke:none"
             d="M 0,0 V 16.075 H 12.516 V 12.553 H 4.524 V 9.866 H 11.35 V 6.345 H 4.524 V 3.521 h 7.992 V 0 Z" /></g><g
           transform="translate(737.084,305.5312)"
           id="g220"><path
             id="path222"
             style="fill:#98c32e;fill-opacity:1;fill-rule:nonzero;stroke:none"
             d="m 0,0 c -2.143,0 -3.774,0.633 -5.116,1.807 -1.939,1.693 -1.863,3.952 -1.863,6.368 0,2.414 -0.076,4.672 1.863,6.365 1.342,1.176 2.973,1.807 5.116,1.807 3.495,0 6.31,-1.694 6.986,-5.238 H 2.38 c -0.282,0.902 -0.853,1.716 -2.351,1.716 -0.832,0 -1.449,-0.293 -1.786,-0.677 -0.415,-0.475 -0.696,-1.039 -0.696,-3.973 0,-2.938 0.281,-3.501 0.696,-3.975 0.337,-0.384 0.954,-0.676 1.786,-0.676 1.498,0 2.069,0.812 2.351,1.713 H 6.986 C 6.31,1.693 3.495,0 0,0" /></g><g
           transform="translate(774.3916,305.668)"
           id="g224"><path
             id="path226"
             style="fill:#98c32e;fill-opacity:1;fill-rule:nonzero;stroke:none"
             d="M 0,0 V 6.366 H -4.813 V 0 h -4.523 v 16.075 h 4.523 V 9.889 H 0 v 6.186 H 4.522 L 4.522,0 Z" /></g><g
           transform="translate(811.667,305.668)"
           id="g228"><path
             id="path230"
             style="fill:#98c32e;fill-opacity:1;fill-rule:nonzero;stroke:none"
             d="M 0,0 -5.896,8.081 V 0 h -4.525 v 16.075 h 3.956 l 5.896,-8.083 v 8.083 H 3.956 L 3.956,0 Z" /></g><g
           transform="translate(846.1777,317.6572)"
           id="g232"><path
             id="path234"
             style="fill:#98c32e;fill-opacity:1;fill-rule:nonzero;stroke:none"
             d="m 0,0 c -0.337,0.383 -0.98,0.699 -1.811,0.699 -0.828,0 -1.474,-0.316 -1.81,-0.699 -0.412,-0.475 -0.67,-1.017 -0.67,-3.951 0,-2.938 0.258,-3.455 0.67,-3.929 0.336,-0.384 0.982,-0.722 1.81,-0.722 0.831,0 1.474,0.338 1.811,0.722 0.415,0.474 0.671,0.991 0.671,3.929 C 0.671,-1.017 0.415,-0.475 0,0 m 3.336,-10.319 c -1.347,-1.174 -2.894,-1.807 -5.147,-1.807 -2.25,0 -3.798,0.633 -5.142,1.807 -1.944,1.693 -1.865,3.952 -1.865,6.368 0,2.414 -0.079,4.672 1.865,6.365 1.344,1.176 2.892,1.807 5.142,1.807 2.253,0 3.8,-0.631 5.147,-1.807 1.936,-1.693 1.861,-3.951 1.861,-6.365 0,-2.416 0.075,-4.675 -1.861,-6.368" /></g><g
           transform="translate(873.1133,305.668)"
           id="g236"><path
             id="path238"
             style="fill:#98c32e;fill-opacity:1;fill-rule:nonzero;stroke:none"
             d="M 0,0 V 16.075 H 4.522 V 3.521 h 7.733 l 0,-3.521 z" /></g><g
           transform="translate(914.165,317.6572)"
           id="g240"><path
             id="path242"
             style="fill:#98c32e;fill-opacity:1;fill-rule:nonzero;stroke:none"
             d="M 0,0 C -0.336,0.383 -0.983,0.699 -1.811,0.699 -2.635,0.699 -3.282,0.383 -3.62,0 c -0.412,-0.475 -0.674,-1.017 -0.674,-3.951 0,-2.938 0.262,-3.455 0.674,-3.929 0.338,-0.384 0.985,-0.722 1.809,-0.722 0.828,0 1.475,0.338 1.811,0.722 0.412,0.474 0.672,0.991 0.672,3.929 C 0.672,-1.017 0.412,-0.475 0,0 m 3.334,-10.319 c -1.344,-1.174 -2.893,-1.807 -5.145,-1.807 -2.249,0 -3.797,0.633 -5.143,1.807 -1.941,1.693 -1.862,3.952 -1.862,6.368 0,2.414 -0.079,4.672 1.862,6.365 1.346,1.176 2.894,1.807 5.143,1.807 2.252,0 3.801,-0.631 5.145,-1.807 1.94,-1.693 1.863,-3.951 1.863,-6.365 0,-2.416 0.077,-4.675 -1.863,-6.368" /></g><g
           transform="translate(952.8398,307.3379)"
           id="g244"><path
             id="path246"
             style="fill:#98c32e;fill-opacity:1;fill-rule:nonzero;stroke:none"
             d="m 0,0 c -1.578,-1.423 -3.339,-1.807 -5.353,-1.807 -2.147,0 -3.774,0.633 -5.12,1.807 -1.94,1.693 -1.864,3.952 -1.864,6.368 0,2.414 -0.076,4.672 1.864,6.365 1.346,1.176 2.895,1.807 5.12,1.807 4.73,0 6.747,-2.686 7.185,-5.328 h -4.55 c -0.36,1.22 -1.086,1.807 -2.635,1.807 -0.83,0 -1.448,-0.317 -1.785,-0.7 -0.415,-0.474 -0.673,-1.016 -0.673,-3.951 0,-2.937 0.258,-3.501 0.673,-3.974 0.337,-0.384 0.955,-0.676 1.785,-0.676 0.957,0 1.602,0.246 2.014,0.631 0.521,0.451 0.7,1.105 0.7,1.714 V 4.29 H -5.353 V 7.586 H 1.858 V 5.351 C 1.858,2.756 1.394,1.241 0,0" /></g><path
           id="path248"
           style="fill:#98c32e;fill-opacity:1;fill-rule:nonzero;stroke:none"
           d="m 976.44,321.743 h 4.522 v -16.075 h -4.522 z" /><g
           transform="translate(1003.2959,305.668)"
           id="g250"><path
             id="path252"
             style="fill:#98c32e;fill-opacity:1;fill-rule:nonzero;stroke:none"
             d="M 0,0 V 16.075 H 12.514 V 12.553 H 4.525 V 9.866 h 6.828 V 6.345 H 4.525 V 3.521 h 7.989 V 0 Z" /></g><g
           transform="translate(1042.875,305.5312)"
           id="g254"><path
             id="path256"
             style="fill:#98c32e;fill-opacity:1;fill-rule:nonzero;stroke:none"
             d="m 0,0 c -2.819,0 -5.12,0.451 -6.979,2.123 l 2.894,2.527 c 0.958,-0.834 2.637,-1.126 4.111,-1.126 1.782,0 2.637,0.517 2.637,1.443 0,0.384 -0.104,0.7 -0.362,0.949 C 2.07,6.119 1.681,6.278 1.087,6.344 l -2.224,0.27 c -1.628,0.205 -2.871,0.679 -3.698,1.423 -0.853,0.769 -1.268,1.851 -1.268,3.23 0,2.935 2.534,5.08 6.721,5.08 2.642,0 4.631,-0.543 6.209,-1.918 L 3.983,11.945 c -1.165,1.015 -2.688,0.948 -3.493,0.948 -1.576,0 -2.221,-0.79 -2.221,-1.491 0,-0.203 0.075,-0.497 0.362,-0.744 0.232,-0.203 0.618,-0.406 1.265,-0.473 L 2.122,9.913 C 3.775,9.709 4.964,9.257 5.739,8.58 6.723,7.745 7.108,6.549 7.108,5.059 7.108,1.784 3.877,0 0,0" /></g><g
           transform="translate(187.4399,275.8281)"
           id="g258"> /></g></g></g></g></svg>